<?xml version="1.0" encoding="UTF-8"?>
<svg id="Layer_1" xmlns="http://www.w3.org/2000/svg" version="1.1" viewBox="0 0 500 150">
  <!-- Generator: Adobe Illustrator 29.3.1, SVG Export Plug-In . SVG Version: 2.1.0 Build 151)  -->
  <g id="_02-shop">
    <g id="Glyph">
      <path d="M101,62H23.2v3.2c0,3.6,2.9,6.5,6.5,6.5h9.7c3.6,0,6.5-2.9,6.5-6.5,0,3.6,2.9,6.5,6.5,6.5h19.5c3.6,0,6.5-2.9,6.5-6.5,0,3.6,2.9,6.5,6.5,6.5h9.7c3.6,0,6.5-2.9,6.5-6.5v-3.2h0Z"/>
      <path d="M100.2,58.8l-5.8-20.3c-.4-1.4-1.7-2.4-3.1-2.4h-14.9l4.5,22.7h19.2Z"/>
      <path d="M47.8,36.1h-14.9c-1.4,0-2.7,1-3.1,2.4l-5.8,20.3h19.2l4.5-22.7Z"/>
      <path d="M69.8,36.1h-15.4l-4.5,22.7h24.5l-4.5-22.7Z"/>
      <path d="M84.8,75c-2.4,0-4.7-.9-6.5-2.5-1.8,1.6-4.1,2.5-6.5,2.5h-19.5c-2.4,0-4.7-.9-6.5-2.5-1.8,1.6-4.1,2.5-6.5,2.5h-9.7c-1.1,0-2.2-.2-3.2-.6v36.2c0,1.8,1.5,3.2,3.2,3.2h6.5v-29.2c0-1.8,1.5-3.2,3.2-3.2h16.2c1.8,0,3.2,1.5,3.2,3.2v29.2h35.7c1.8,0,3.2-1.5,3.2-3.2v-36.2c-1,.4-2.1.6-3.2.6h-9.7ZM88.1,94.5c0,1.8-1.5,3.2-3.2,3.2h-16.2c-1.8,0-3.2-1.5-3.2-3.2v-9.7c0-1.8,1.5-3.2,3.2-3.2h16.2c1.8,0,3.2,1.5,3.2,3.2v9.7Z"/>
    </g>
  </g>
  <g>
    <path d="M133.1,87.2h18.8v12.4h-31.3v-48.9h30.6v12.4h-18.1v24.1ZM132.3,68.9h16.8v11.9h-16.8v-11.9Z"/>
    <path d="M159,99.7v-48.9h12.7v36.1h17v12.8h-29.7Z"/>
    <path d="M194.3,99.7v-48.9h12.7v48.9h-12.7Z"/>
    <path d="M223.5,99.7v-36.1h-11v-12.8h34.7v12.8h-11v36.1h-12.7Z"/>
    <path d="M265.1,87.2h18.8v12.4h-31.3v-48.9h30.6v12.4h-18.1v24.1ZM264.2,68.9h16.8v11.9h-16.8v-11.9Z"/>
    <path d="M323.3,100.8c-3.2,0-6.2-.5-9.1-1.4-2.9-.9-5.4-2.1-7.3-3.6l4.1-12c1.8,1.4,3.8,2.4,6,3.3s4.3,1.2,6.4,1.2,2.2-.1,2.9-.3c.7-.2,1.2-.5,1.5-.9.3-.4.5-.9.5-1.4,0-.9-.4-1.6-1.1-2.1-.8-.5-1.7-.9-3-1.3-1.2-.3-2.6-.7-4.1-1.1-1.5-.4-3-.9-4.4-1.6-1.5-.7-2.9-1.5-4.1-2.6-1.2-1.1-2.2-2.5-3-4.2-.8-1.7-1.1-3.9-1.1-6.5s.7-5.8,2-8.3c1.3-2.5,3.3-4.5,5.9-6,2.6-1.5,5.8-2.2,9.7-2.2s5.1.3,7.5,1c2.5.7,4.7,1.8,6.7,3.2l-3.8,12c-1.9-1.2-3.7-2.1-5.4-2.7-1.7-.6-3.4-.9-5.1-.9s-2.2.1-2.9.4c-.7.3-1.2.7-1.5,1.1-.3.5-.5,1-.5,1.5,0,.8.4,1.5,1.1,2s1.7.9,3,1.2c1.2.3,2.6.7,4.1,1,1.5.4,3,.9,4.4,1.5,1.5.7,2.8,1.5,4.1,2.6,1.2,1.1,2.2,2.5,3,4.2.8,1.7,1.1,3.9,1.1,6.4s-.7,5.7-2,8.2c-1.3,2.5-3.3,4.5-5.8,6-2.6,1.5-5.8,2.3-9.7,2.3Z"/>
    <path d="M359.4,99.7h-12.7v-48.9h12.7v48.9ZM372,81.6h-13.4v-13.6h13.4v13.6ZM371.2,50.7h12.7v48.9h-12.7v-48.9Z"/>
    <path d="M411.9,100.8c-3,0-5.9-.6-8.5-1.9-2.6-1.3-4.8-3-6.8-5.3-1.9-2.3-3.4-5-4.4-8.1-1.1-3.1-1.6-6.5-1.6-10.2s.5-7.1,1.6-10.2c1.1-3.1,2.5-5.8,4.4-8.1,1.9-2.3,4.1-4.1,6.8-5.3,2.6-1.3,5.4-1.9,8.5-1.9s5.9.6,8.5,1.9c2.6,1.3,4.8,3,6.7,5.3,1.9,2.3,3.4,5,4.4,8.1,1.1,3.1,1.6,6.5,1.6,10.2s-.5,7.1-1.6,10.2c-1.1,3.1-2.5,5.8-4.4,8.1-1.9,2.3-4.1,4.1-6.7,5.3-2.6,1.3-5.4,1.9-8.5,1.9ZM411.9,87.4c1.2,0,2.3-.3,3.3-.8,1-.6,1.9-1.4,2.7-2.4.8-1,1.4-2.3,1.8-3.8.4-1.5.6-3.2.6-5.1s-.2-3.6-.6-5.1c-.4-1.5-1-2.8-1.8-3.8-.8-1-1.7-1.9-2.7-2.4-1-.6-2.1-.8-3.3-.8s-2.3.3-3.3.8c-1,.6-1.9,1.4-2.7,2.4-.8,1-1.4,2.3-1.8,3.8-.4,1.5-.6,3.2-.6,5.1s.2,3.6.6,5.1c.4,1.5,1,2.8,1.8,3.8.8,1,1.7,1.9,2.7,2.4,1,.6,2.1.8,3.3.8Z"/>
    <path d="M439.9,99.7v-48.9h18.1c3.5,0,6.6.7,9.1,2.2,2.6,1.5,4.5,3.6,5.9,6.4,1.4,2.8,2.1,6,2.1,9.8s-.7,7-2.1,9.8c-1.4,2.8-3.4,4.9-5.9,6.4-2.6,1.5-5.6,2.3-9.1,2.3h-11.1l5.6-7.1v19.1h-12.7ZM452.6,82.4l-5.6-7.5h10.3c1.8,0,3.1-.5,3.9-1.5.8-1,1.3-2.4,1.3-4.2s-.4-3.2-1.3-4.2c-.8-1-2.1-1.5-3.9-1.5h-10.3l5.6-7.5v26.4Z"/>
  </g>
</svg>